<svg width="294" height="254" viewBox="0 0 294 254" fill="none" xmlns="http://www.w3.org/2000/svg">
<path d="M207.181 98.0123C207.183 98.0118 207.176 98.03 207.154 98.0684C207.168 98.032 207.179 98.0128 207.181 98.0123ZM204.037 99.8003C204.591 99.7964 205.084 99.8077 205.52 99.8305C205.192 100.116 204.813 100.428 204.376 100.765C201.588 102.918 197.179 105.572 191.371 108.547C179.805 114.472 163.252 121.389 144.467 127.857C125.682 134.326 108.365 139.072 95.5811 141.532C89.1614 142.767 84.04 143.395 80.5032 143.42C79.9494 143.424 79.4564 143.412 79.0206 143.39C79.348 143.104 79.7274 142.792 80.164 142.455C82.9526 140.302 87.3614 137.648 93.1693 134.673C104.735 128.748 121.289 121.832 140.074 115.363C158.859 108.895 176.175 104.148 188.959 101.688C195.379 100.453 200.5 99.8253 204.037 99.8003ZM76.5777 142.985C76.5795 142.984 76.6 142.992 76.6337 143.012C76.5928 142.996 76.5759 142.986 76.5777 142.985ZM77.3594 145.208C77.3575 145.208 77.3644 145.19 77.3858 145.152C77.372 145.188 77.3613 145.207 77.3594 145.208ZM207.907 100.208C207.948 100.225 207.964 100.235 207.963 100.235C207.961 100.236 207.94 100.228 207.907 100.208Z" stroke="#ED3DFF" stroke-width="7.40193"/>
<path d="M202.243 83.8C202.245 83.7991 202.242 83.8184 202.228 83.8603C202.235 83.8218 202.242 83.8009 202.243 83.8ZM199.508 86.1748C200.049 86.0627 200.533 85.9774 200.964 85.9147C200.697 86.2606 200.385 86.6424 200.021 87.0607C197.702 89.7276 193.894 93.2049 188.779 97.272C178.594 105.371 163.722 115.421 146.585 125.466C129.448 135.511 113.421 143.571 101.393 148.492C95.3529 150.963 90.467 152.582 87.016 153.297C86.4748 153.409 85.9904 153.494 85.5598 153.557C85.8262 153.211 86.1386 152.829 86.5023 152.411C88.8215 149.744 92.6296 146.267 97.7443 142.2C107.93 134.101 122.802 124.051 139.939 114.006C157.076 103.961 173.102 95.9008 185.131 90.9798C191.171 88.5086 196.057 86.89 199.508 86.1748ZM83.099 153.635C83.1006 153.634 83.1221 153.638 83.1588 153.651C83.1157 153.642 83.0974 153.636 83.099 153.635ZM84.2803 155.672C84.2786 155.673 84.282 155.653 84.2956 155.611C84.2889 155.65 84.2821 155.671 84.2803 155.672ZM203.365 85.8209C203.408 85.8296 203.426 85.8361 203.425 85.8372C203.423 85.8383 203.401 85.8339 203.365 85.8209Z" stroke="#ED3DFF" stroke-width="7.40193"/>
<path fill-rule="evenodd" clip-rule="evenodd" d="M130.588 69.0537C131.898 68.3871 133.195 67.7267 134.481 67.0805C138.171 58.6418 145.11 47.5419 154.364 37.7591C158.982 42.172 171.958 55.898 180.551 66.9854C186.166 72.6502 191.688 81.4707 197.203 94.5384C209.535 120.25 195.756 152.497 166.427 166.564C137.098 180.631 103.325 171.191 90.9929 145.48C86.2399 135.57 83.2817 127.345 81.8009 120.434C77.885 106.892 74.6134 83.5698 73.9855 76.3109C87.3797 75.2197 100.353 76.7484 109.243 79.1442C110.206 78.712 111.181 78.2783 112.165 77.8404C115.295 76.4474 118.52 75.0125 121.769 73.4541C124.771 72.0142 127.708 70.5194 130.587 69.0543L130.587 69.0543L130.588 69.0537Z" fill="url(#paint0_radial_198_74)"/>
<ellipse cx="113.009" cy="118.823" rx="6.94424" ry="7.67873" transform="rotate(-25.6237 113.009 118.823)" fill="white"/>
<ellipse cx="159.156" cy="96.69" rx="6.94424" ry="7.67873" transform="rotate(-25.6237 159.156 96.69)" fill="white"/>
<path d="M84.437 143.036C112.166 137.234 174.325 121.486 203.39 101.407" stroke="#ED3DFF" stroke-width="7.40193"/>
<g filter="url(#filter0_ddddddd_198_74)">
<path d="M93.6104 151.424C119.351 140.854 174.685 113.87 198.596 88.5934" stroke="#E840FC" stroke-width="7.40193"/>
</g>
<path d="M154.178 50.3292C152.467 50.0926 148.989 58.7401 147.464 63.0935C154.896 57.1794 167.545 64.7191 172.941 69.2282C167.399 63.0271 155.889 50.5658 154.178 50.3292Z" fill="url(#paint1_radial_198_74)"/>
<path d="M83.5641 84.1973C84.4505 82.7149 93.3714 85.4156 97.7211 86.9513C88.4566 89.0454 86.4186 103.629 86.5577 110.66C85.1905 102.456 82.6776 85.6796 83.5641 84.1973Z" fill="url(#paint2_radial_198_74)"/>
<defs>
<filter id="filter0_ddddddd_198_74" x="-0.00998688" y="0.534904" width="293.508" height="253.326" filterUnits="userSpaceOnUse" color-interpolation-filters="sRGB">
<feFlood flood-opacity="0" result="BackgroundImageFix"/>
<feColorMatrix in="SourceAlpha" type="matrix" values="0 0 0 0 0 0 0 0 0 0 0 0 0 0 0 0 0 0 127 0" result="hardAlpha"/>
<feOffset dy="0.1564"/>
<feGaussianBlur stdDeviation="1.06874"/>
<feColorMatrix type="matrix" values="0 0 0 0 0.529412 0 0 0 0 0.0117647 0 0 0 0 0.721569 0 0 0 0.0284157 0"/>
<feBlend mode="normal" in2="BackgroundImageFix" result="effect1_dropShadow_198_74"/>
<feColorMatrix in="SourceAlpha" type="matrix" values="0 0 0 0 0 0 0 0 0 0 0 0 0 0 0 0 0 0 127 0" result="hardAlpha"/>
<feOffset dy="0.363643"/>
<feGaussianBlur stdDeviation="2.48489"/>
<feColorMatrix type="matrix" values="0 0 0 0 0.529412 0 0 0 0 0.0117647 0 0 0 0 0.721569 0 0 0 0.0410541 0"/>
<feBlend mode="normal" in2="effect1_dropShadow_198_74" result="effect2_dropShadow_198_74"/>
<feColorMatrix in="SourceAlpha" type="matrix" values="0 0 0 0 0 0 0 0 0 0 0 0 0 0 0 0 0 0 127 0" result="hardAlpha"/>
<feOffset dy="0.653019"/>
<feGaussianBlur stdDeviation="4.46229"/>
<feColorMatrix type="matrix" values="0 0 0 0 0.529412 0 0 0 0 0.0117647 0 0 0 0 0.721569 0 0 0 0.0506057 0"/>
<feBlend mode="normal" in2="effect2_dropShadow_198_74" result="effect3_dropShadow_198_74"/>
<feColorMatrix in="SourceAlpha" type="matrix" values="0 0 0 0 0 0 0 0 0 0 0 0 0 0 0 0 0 0 127 0" result="hardAlpha"/>
<feOffset dy="1.08377"/>
<feGaussianBlur stdDeviation="7.40576"/>
<feColorMatrix type="matrix" values="0 0 0 0 0.529412 0 0 0 0 0.0117647 0 0 0 0 0.721569 0 0 0 0.0593943 0"/>
<feBlend mode="normal" in2="effect3_dropShadow_198_74" result="effect4_dropShadow_198_74"/>
<feColorMatrix in="SourceAlpha" type="matrix" values="0 0 0 0 0 0 0 0 0 0 0 0 0 0 0 0 0 0 127 0" result="hardAlpha"/>
<feOffset dy="1.78547"/>
<feGaussianBlur stdDeviation="12.2007"/>
<feColorMatrix type="matrix" values="0 0 0 0 0.529412 0 0 0 0 0.0117647 0 0 0 0 0.721569 0 0 0 0.0689459 0"/>
<feBlend mode="normal" in2="effect4_dropShadow_198_74" result="effect5_dropShadow_198_74"/>
<feColorMatrix in="SourceAlpha" type="matrix" values="0 0 0 0 0 0 0 0 0 0 0 0 0 0 0 0 0 0 127 0" result="hardAlpha"/>
<feOffset dy="3.12049"/>
<feGaussianBlur stdDeviation="21.3233"/>
<feColorMatrix type="matrix" values="0 0 0 0 0.529412 0 0 0 0 0.0117647 0 0 0 0 0.721569 0 0 0 0.0815843 0"/>
<feBlend mode="normal" in2="effect5_dropShadow_198_74" result="effect6_dropShadow_198_74"/>
<feColorMatrix in="SourceAlpha" type="matrix" values="0 0 0 0 0 0 0 0 0 0 0 0 0 0 0 0 0 0 127 0" result="hardAlpha"/>
<feOffset dy="6.74948"/>
<feGaussianBlur stdDeviation="46.1214"/>
<feColorMatrix type="matrix" values="0 0 0 0 0.529412 0 0 0 0 0.0117647 0 0 0 0 0.721569 0 0 0 0.11 0"/>
<feBlend mode="normal" in2="effect6_dropShadow_198_74" result="effect7_dropShadow_198_74"/>
<feBlend mode="normal" in="SourceGraphic" in2="effect7_dropShadow_198_74" result="shape"/>
</filter>
<radialGradient id="paint0_radial_198_74" cx="0" cy="0" r="1" gradientUnits="userSpaceOnUse" gradientTransform="translate(140.14 111.757) rotate(64.2868) scale(60.7851 59.0973)">
<stop offset="0.368874" stop-color="#F3E9F4"/>
<stop offset="0.502555" stop-color="#FBD4FF"/>
<stop offset="0.656509" stop-color="#F2CFF6"/>
<stop offset="0.830811" stop-color="#F9BCFF"/>
<stop offset="1" stop-color="#F7AAFF"/>
</radialGradient>
<radialGradient id="paint1_radial_198_74" cx="0" cy="0" r="1" gradientUnits="userSpaceOnUse" gradientTransform="translate(158.32 62.2374) rotate(64.3763) scale(12.6258 10.1592)">
<stop stop-color="#F4E5F5"/>
<stop offset="1" stop-color="#F380FF"/>
</radialGradient>
<radialGradient id="paint2_radial_198_74" cx="0" cy="0" r="1" gradientUnits="userSpaceOnUse" gradientTransform="translate(90.2576 94.8821) rotate(64.3763) scale(12.6258 10.1592)">
<stop stop-color="#F3E9F5"/>
<stop offset="1" stop-color="#F380FF"/>
</radialGradient>
</defs>
</svg>
