<svg width="74" height="49" viewBox="0 0 74 49" fill="none" xmlns="http://www.w3.org/2000/svg">
<path d="M52.394 24.1663C52.3945 24.1664 52.3908 24.1699 52.3813 24.1765C52.3887 24.1695 52.3935 24.1662 52.394 24.1663ZM51.5056 24.2357C51.6247 24.2902 51.7297 24.3419 51.8218 24.3905C51.7212 24.4174 51.6073 24.4444 51.4791 24.471C50.6399 24.645 49.3946 24.7597 47.8119 24.8C44.6595 24.8803 40.3134 24.6628 35.5272 24.123C30.7411 23.5832 26.4557 22.8272 23.4004 22.0469C21.8664 21.6551 20.678 21.2659 19.8986 20.9094C19.7795 20.8549 19.6745 20.8032 19.5824 20.7546C19.683 20.7277 19.7969 20.7007 19.9251 20.6741C20.7643 20.5001 22.0096 20.3854 23.5923 20.3451C26.7447 20.2649 31.0908 20.4824 35.877 21.0221C40.6631 21.5619 44.9485 22.3179 48.0038 23.0983C49.5378 23.4901 50.7262 23.8792 51.5056 24.2357ZM19.0745 20.4086C19.075 20.4086 19.079 20.4128 19.0847 20.4213C19.0768 20.4128 19.074 20.4085 19.0745 20.4086ZM19.0102 20.9788C19.0097 20.9787 19.0134 20.9752 19.0229 20.9687C19.0155 20.9756 19.0107 20.9789 19.0102 20.9788ZM52.3195 24.7238C52.3274 24.7324 52.3302 24.7366 52.3297 24.7366C52.3292 24.7366 52.3252 24.7323 52.3195 24.7238Z" fill="white" stroke="#ED3DFF" stroke-width="1.74308"/>
<path d="M52.8034 20.6404C52.804 20.6404 52.801 20.6445 52.7929 20.6528C52.7988 20.6445 52.8029 20.6404 52.8034 20.6404ZM51.9448 20.8788C52.0721 20.9094 52.1851 20.9401 52.2848 20.9701C52.1912 21.0158 52.0846 21.0641 51.9639 21.1148C51.1736 21.4464 49.9734 21.7977 48.4277 22.1406C45.3492 22.8237 41.042 23.4433 36.2411 23.831C31.4403 24.2187 27.0894 24.2982 23.9412 24.118C22.3606 24.0275 21.1195 23.8734 20.2863 23.6728C20.159 23.6422 20.046 23.6116 19.9463 23.5815C20.0399 23.5359 20.1465 23.4875 20.2672 23.4368C21.0575 23.1052 22.2577 22.754 23.8034 22.411C26.8819 21.728 31.1891 21.1083 35.99 20.7206C40.7908 20.3329 45.1417 20.2534 48.2899 20.4337C49.8705 20.5242 51.1115 20.6783 51.9448 20.8788ZM19.3815 23.3393C19.382 23.3392 19.3867 23.3426 19.3939 23.3498C19.3846 23.3429 19.381 23.3393 19.3815 23.3393ZM19.4277 23.9113C19.4271 23.9113 19.4301 23.9072 19.4382 23.8989C19.4323 23.9071 19.4282 23.9113 19.4277 23.9113ZM52.8372 21.2018C52.8465 21.2087 52.8501 21.2123 52.8496 21.2124C52.8491 21.2125 52.8444 21.209 52.8372 21.2018Z" fill="white" stroke="#ED3DFF" stroke-width="1.74308"/>
<path d="M50.5484 22.4192C50.5484 29.1345 44.1554 34.5782 36.2693 34.5782C28.3832 34.5782 21.9902 29.1345 21.9902 22.4192C21.9902 8.32719 28.3832 10.2602 36.2693 10.2602C44.1554 10.2602 51.2343 8.51424 50.5484 22.4192Z" fill="white"/>
<path d="M50.2236 18.1515C50.4231 15.7571 47.9165 8.0059 47.1371 6.00018C40.1846 8.5879 35.1471 13.8568 39.3872 12.9137L48.522 18.1515C48.7091 18.1515 50.0241 20.5458 50.2236 18.1515Z" fill="white"/>
<path d="M22.438 18.1515C22.2385 15.7571 24.7451 8.0059 25.5246 6.00018C32.477 8.5879 37.5145 13.8568 33.2745 12.9137L24.1396 18.1515C23.9525 18.1515 22.6376 20.5458 22.438 18.1515Z" fill="white"/>
<ellipse cx="29.5976" cy="19.001" rx="1.68356" ry="1.80827" fill="white"/>
<ellipse cx="42.0058" cy="19.001" rx="1.68356" ry="1.80827" fill="white"/>
<path d="M20.8135 21.2323C27.4831 22.8243 42.7221 25.8109 51.1807 24.5074" stroke="#ED3DFF" stroke-width="1.74308"/>
<g filter="url(#filter0_ddddddd_198_73)">
<path d="M21.9395 23.9476C28.6744 24.3249 43.5993 24.2304 51.4765 21.2986" stroke="#E840FC" stroke-width="1.74308"/>
</g>
<path d="M45.7786 8.65009C45.4294 8.42561 43.7625 9.90756 42.9727 10.6766C45.2174 10.1778 47.1919 13.0668 47.8986 14.5737C47.3374 12.6927 46.1278 8.87456 45.7786 8.65009Z" fill="white"/>
<path d="M26.7917 8.65009C27.1409 8.42561 28.8078 9.90756 29.5977 10.6766C27.3529 10.1778 25.3784 13.0668 24.6717 14.5737C25.2329 12.6927 26.4425 8.87456 26.7917 8.65009Z" fill="white"/>
<defs>
<filter id="filter0_ddddddd_198_73" x="0.168339" y="0.3489" width="73.3342" height="47.9396" filterUnits="userSpaceOnUse" color-interpolation-filters="sRGB">
<feFlood flood-opacity="0" result="BackgroundImageFix"/>
<feColorMatrix in="SourceAlpha" type="matrix" values="0 0 0 0 0 0 0 0 0 0 0 0 0 0 0 0 0 0 127 0" result="hardAlpha"/>
<feOffset dy="0.0368307"/>
<feGaussianBlur stdDeviation="0.251677"/>
<feColorMatrix type="matrix" values="0 0 0 0 0.529412 0 0 0 0 0.0117647 0 0 0 0 0.721569 0 0 0 0.0284157 0"/>
<feBlend mode="normal" in2="BackgroundImageFix" result="effect1_dropShadow_198_73"/>
<feColorMatrix in="SourceAlpha" type="matrix" values="0 0 0 0 0 0 0 0 0 0 0 0 0 0 0 0 0 0 127 0" result="hardAlpha"/>
<feOffset dy="0.0856343"/>
<feGaussianBlur stdDeviation="0.585168"/>
<feColorMatrix type="matrix" values="0 0 0 0 0.529412 0 0 0 0 0.0117647 0 0 0 0 0.721569 0 0 0 0.0410541 0"/>
<feBlend mode="normal" in2="effect1_dropShadow_198_73" result="effect2_dropShadow_198_73"/>
<feColorMatrix in="SourceAlpha" type="matrix" values="0 0 0 0 0 0 0 0 0 0 0 0 0 0 0 0 0 0 127 0" result="hardAlpha"/>
<feOffset dy="0.153779"/>
<feGaussianBlur stdDeviation="1.05083"/>
<feColorMatrix type="matrix" values="0 0 0 0 0.529412 0 0 0 0 0.0117647 0 0 0 0 0.721569 0 0 0 0.0506057 0"/>
<feBlend mode="normal" in2="effect2_dropShadow_198_73" result="effect3_dropShadow_198_73"/>
<feColorMatrix in="SourceAlpha" type="matrix" values="0 0 0 0 0 0 0 0 0 0 0 0 0 0 0 0 0 0 127 0" result="hardAlpha"/>
<feOffset dy="0.255217"/>
<feGaussianBlur stdDeviation="1.74398"/>
<feColorMatrix type="matrix" values="0 0 0 0 0.529412 0 0 0 0 0.0117647 0 0 0 0 0.721569 0 0 0 0.0593943 0"/>
<feBlend mode="normal" in2="effect3_dropShadow_198_73" result="effect4_dropShadow_198_73"/>
<feColorMatrix in="SourceAlpha" type="matrix" values="0 0 0 0 0 0 0 0 0 0 0 0 0 0 0 0 0 0 127 0" result="hardAlpha"/>
<feOffset dy="0.420461"/>
<feGaussianBlur stdDeviation="2.87315"/>
<feColorMatrix type="matrix" values="0 0 0 0 0.529412 0 0 0 0 0.0117647 0 0 0 0 0.721569 0 0 0 0.0689459 0"/>
<feBlend mode="normal" in2="effect4_dropShadow_198_73" result="effect5_dropShadow_198_73"/>
<feColorMatrix in="SourceAlpha" type="matrix" values="0 0 0 0 0 0 0 0 0 0 0 0 0 0 0 0 0 0 127 0" result="hardAlpha"/>
<feOffset dy="0.734844"/>
<feGaussianBlur stdDeviation="5.02144"/>
<feColorMatrix type="matrix" values="0 0 0 0 0.529412 0 0 0 0 0.0117647 0 0 0 0 0.721569 0 0 0 0.0815843 0"/>
<feBlend mode="normal" in2="effect5_dropShadow_198_73" result="effect6_dropShadow_198_73"/>
<feColorMatrix in="SourceAlpha" type="matrix" values="0 0 0 0 0 0 0 0 0 0 0 0 0 0 0 0 0 0 127 0" result="hardAlpha"/>
<feOffset dy="1.58944"/>
<feGaussianBlur stdDeviation="10.8611"/>
<feColorMatrix type="matrix" values="0 0 0 0 0.529412 0 0 0 0 0.0117647 0 0 0 0 0.721569 0 0 0 0.11 0"/>
<feBlend mode="normal" in2="effect6_dropShadow_198_73" result="effect7_dropShadow_198_73"/>
<feBlend mode="normal" in="SourceGraphic" in2="effect7_dropShadow_198_73" result="shape"/>
</filter>
</defs>
</svg>
