<svg width="137" height="175" viewBox="0 0 137 175" fill="none" xmlns="http://www.w3.org/2000/svg">
<path d="M134.024 33.5L26.0238 29C18.6904 63.8333 3.62376 134.5 2.02376 138.5C0.423762 142.5 80.0238 145.5 120.024 146.5L134.024 33.5Z" stroke="white" stroke-width="4"/>
<path d="M128.024 46L114.524 135.5" stroke="white" stroke-width="7"/>
<path d="M111.024 135L112.524 144L117.524 136L110.524 135" stroke="white" stroke-width="2"/>
<path d="M91.0239 48L96.0239 136H91.0239M89.3912 81C90.3278 70.4186 91.0239 62.3181 91.0239 61.5C91.0239 59.5 80.6906 112.333 75.5239 139H78.5239L82.5239 140.5V139H88.0239L89.5239 136H91.0239M89.3912 81C87.4658 102.753 84.5239 134.991 84.5239 136C84.5239 137.2 87.7688 99.8333 89.3912 81ZM91.0239 136V79" stroke="white" stroke-width="4"/>
<path d="M16.5239 41.4998C19.0239 36.4998 24.4239 29.4998 26.0239 41.4998C29.5239 37.6079 36.8239 32.4916 38.0239 43.162M38.0239 43.162L47.0239 43.6485M38.0239 43.162L37.0239 43.108M47.0239 43.6485C49.0239 51.5 49.5239 23.2159 37.0239 43.108M47.0239 43.6485L59.0239 44.2971L90.5239 45.9998L74.5239 140L4.02393 134.5L16.5239 41.9998L37.0239 43.108" stroke="white" stroke-width="4"/>
<path d="M49.0239 43.9997C51.1906 38.3331 56.6239 30.5997 61.0239 44.9997C63.8573 39.1665 70.3239 31.1 73.5239 45.5C75.8573 40.5 80.9239 33.5 82.5239 45.5C86.1906 40.6667 92.8239 34.3 90.0239 47.5L16.5239 46.5L87.5239 53L71.0239 48.5H87.5239V51" stroke="white" stroke-width="4"/>
<path d="M63.0598 125.222C63.6382 125.377 69.092 123.532 68.7316 123.849M62.7498 126.379L66.5979 126.928" stroke="white"/>
<path d="M47.2218 119.807L40.0239 117.878" stroke="white"/>
<path d="M46.6753 121.589L41.0702 120.914" stroke="white"/>
<path d="M50.4339 111.162C49.6783 112.268 48.106 114.657 47.8617 115.363C38.1607 127.918 58.1858 130.046 62.1935 129.742C65.3996 129.499 65.6286 123.178 65.3423 120.047L64.4441 114.916L60.8793 117.681C60.0338 116.517 55.1714 115.761 52.8459 115.528L50.4339 111.162Z" stroke="white"/>
<circle cx="50.2345" cy="120.132" r="0.598807" transform="rotate(15 50.2345 120.132)" fill="white"/>
<circle cx="60.5172" cy="122.888" r="0.598807" transform="rotate(15 60.5172 122.888)" fill="white"/>
<path d="M55.4559 122.495C55.3703 122.815 55.042 123.004 54.7225 122.919C54.4031 122.833 54.2135 122.505 54.2991 122.185C54.3847 121.866 54.6097 122.062 54.9292 122.148C55.2486 122.233 55.5415 122.176 55.4559 122.495Z" fill="white"/>
<path d="M54.9249 122.422C54.9593 122.293 51.9821 124.664 49.6055 122.994" stroke="white"/>
<path d="M54.9245 122.423C54.9589 122.294 56.3519 125.836 59.2451 125.578" stroke="white"/>
<path d="M20.535 59.2588C20.4471 61.1352 19.9443 64.7243 22.0863 65.7953C24.0574 66.7809 26.7102 65.7327 28.0426 64.1612C28.467 63.6606 28.7261 62.232 28.682 62.7876C28.4043 66.2861 31.3446 64.7013 33.0634 63.5217C34.3933 62.609 35.7613 61.3082 37.2553 60.6679C37.7004 60.4772 37.7822 60.6975 38.0842 60.9995C38.7369 61.6522 39.5797 61.949 40.4762 62.1008C42.5249 62.4475 44.2969 61.8613 46.2074 61.2245C48.0775 60.6011 49.0986 60.3358 49.831 62.2665C50.6966 64.5486 51.5887 67.0015 54.4373 66.9676C57.2505 66.9341 59.8136 65.5457 62.4777 64.848C64.0683 64.4314 65.7748 64.0733 67.2143 65.0138C68.0011 65.5278 69.166 66.1109 70.151 65.819C70.257 65.7876 70.6768 65.4566 70.7431 65.4756C71.0887 65.5743 71.2603 66.3336 71.4891 66.6005C72.1137 67.3292 73.55 65.68 73.8219 65.2269" stroke="white" stroke-width="2" stroke-linecap="round"/>
<path d="M21.6011 79.2952C22.0288 80.3482 22.8883 80.1012 23.8628 79.8873C26.7719 79.2487 29.7595 78.7267 32.6255 77.9216C33.0513 77.802 33.9604 77.3128 34.461 77.4006C34.8755 77.4733 35.4609 78.1465 35.7991 78.3361C38.0442 79.5947 40.8099 79.4985 43.2711 79.0939C44.0389 78.9677 46.6296 77.7203 47.0722 78.265C47.6004 78.9151 47.7983 79.6855 48.5879 80.1123C49.8121 80.774 51.3689 80.3042 52.6022 79.911C54.1033 79.4324 55.7498 78.1311 57.4098 78.49C58.1513 78.6503 58.8126 78.6724 59.5413 78.3953C60.2893 78.1108 60.8433 77.3849 61.6254 77.2111C62.3988 77.0393 62.7144 77.8063 63.0938 78.3242C63.8842 79.4032 64.8397 80.3514 65.7936 81.2846C66.4526 81.9292 67.2733 81.39 68.0672 81.2135" stroke="white" stroke-width="2" stroke-linecap="round"/>
<path d="M19.043 89.5257C18.9725 90.1952 18.6167 90.7364 18.6167 91.4322C18.6167 92.9267 20.9181 91.0436 21.2929 90.7099C23.4015 88.8321 24.4714 85.9081 25.1532 83.2379C25.1791 83.1366 25.2283 82.8267 25.2124 82.93C25.1697 83.2076 25.1222 83.7313 25.1059 83.9247C24.8641 86.7909 25.2231 89.5706 26.5268 92.1782C28.9401 97.0047 33.1633 98.6332 38.2499 97.7674C40.129 97.4476 41.5952 95.7016 43.0102 94.5465C45.4131 92.585 47.8125 90.6465 50.0915 88.5429C50.7349 87.9489 50.2746 88.5652 50.6362 89.0876C52.0586 91.1422 56.3412 89.2693 58.2621 90.2007C59.9049 90.9972 58.486 95.5201 61.5777 93.9071C62.6448 93.3504 63.3518 91.6892 63.9105 90.698C63.9526 90.6233 64.8639 88.8507 65.0473 89.4191C65.4437 90.6481 65.3857 91.9909 65.8288 93.2439C65.9364 93.548 66.3538 95.2535 66.788 95.4465C67.1283 95.5977 68.0995 95.1238 68.4932 95.0675" stroke="white" stroke-width="2" stroke-linecap="round"/>
</svg>
