<svg width="223" height="175" viewBox="0 0 223 175" fill="none" xmlns="http://www.w3.org/2000/svg">
<path d="M181.5 104.5C186 104.5 222 80.4997 220 83.4997M181.5 113.5L210.5 110" stroke="white" stroke-width="4"/>
<path d="M56 96H0" stroke="white" stroke-width="4"/>
<path d="M55.5 110L13.5 116" stroke="white" stroke-width="4"/>
<path d="M62.5002 27C59.1669 36.5 52.4002 56.9 52.0002 62.5C6.0002 172.5 155.5 149 184 139C206.8 131 196.167 84.6667 188 62.5L171.5 27L151 54C142.6 47.2 105.834 51.1667 88.5002 54L62.5002 27Z" stroke="white" stroke-width="4"/>
<circle cx="78.5" cy="92.5" r="4.5" fill="white"/>
<circle cx="158.5" cy="92.5" r="4.5" fill="white"/>
<path d="M121 99.4995C121 101.985 118.985 103.999 116.5 103.999C114.015 103.999 112 101.985 112 99.4995C112 97.0142 114.015 97.9993 116.5 97.9993C118.985 97.9993 121 97.0142 121 99.4995Z" fill="white"/>
<path d="M117 100.001C117 99.0005 100 122.001 79.5 114.501" stroke="white" stroke-width="3"/>
<path d="M117 100.001C117 99.0005 134 122.001 154.5 114.501" stroke="white" stroke-width="3"/>
</svg>
