<svg width="41" height="41" viewBox="0 0 41 41" fill="none" xmlns="http://www.w3.org/2000/svg">
<g clip-path="url(#clip0_197_30)">
<mask id="mask0_197_30" style="mask-type:luminance" maskUnits="userSpaceOnUse" x="0" y="0" width="41" height="41">
<path d="M41 0H0V41H41V0Z" fill="white"/>
</mask>
<g mask="url(#mask0_197_30)">
<path d="M20.5 41C31.8218 41 41 31.8218 41 20.5C41 9.17816 31.8218 0 20.5 0C9.17816 0 0 9.17816 0 20.5C0 31.8218 9.17816 41 20.5 41Z" fill="#7E148B"/>
<path d="M15.0559 19.8051C16.6959 23.0281 19.3381 25.6703 22.5611 27.3103L25.0668 24.8048C25.3856 24.4859 25.8298 24.3948 26.2284 24.5201C27.5039 24.9414 28.8706 25.1693 30.2943 25.1693C30.5963 25.1693 30.8859 25.2893 31.0995 25.5027C31.3131 25.7163 31.4331 26.0061 31.4331 26.3081V30.2943C31.4331 30.5963 31.3131 30.8859 31.0995 31.0995C30.8859 31.3131 30.5963 31.4331 30.2943 31.4331C25.1593 31.4331 20.2348 29.3932 16.6038 25.7624C12.9729 22.1314 10.9331 17.2069 10.9331 12.072C10.9331 11.7699 11.0531 11.4803 11.2667 11.2667C11.4803 11.0531 11.7699 10.9331 12.072 10.9331H16.0581C16.3601 10.9331 16.6499 11.0531 16.8635 11.2667C17.077 11.4803 17.1969 11.7699 17.1969 12.072C17.1969 13.4956 17.4248 14.8623 17.8461 16.1378C17.9714 16.5364 17.8803 16.9806 17.5614 17.2994L15.0559 19.8051Z" fill="#F7AAFF"/>
</g>
</g>
<defs>
<clipPath id="clip0_197_30">
<rect width="41" height="41" fill="white"/>
</clipPath>
</defs>
</svg>
