<svg width="41" height="41" viewBox="0 0 41 41" fill="none" xmlns="http://www.w3.org/2000/svg">
<g clip-path="url(#clip0_197_16)">
<mask id="mask0_197_16" style="mask-type:luminance" maskUnits="userSpaceOnUse" x="0" y="0" width="41" height="41">
<path d="M41 0H0V41H41V0Z" fill="white"/>
</mask>
<g mask="url(#mask0_197_16)">
<path d="M20.5 41C31.8218 41 41 31.8218 41 20.5C41 9.17816 31.8218 0 20.5 0C9.17816 0 0 9.17816 0 20.5C0 31.8218 9.17816 41 20.5 41Z" fill="#7E148B"/>
<path d="M28.2026 12.4687C28.2026 12.4687 30.2254 11.6405 30.0569 13.6519C30.0007 14.48 29.495 17.3787 29.1017 20.5141L27.7531 29.8019C27.7531 29.8019 27.6408 31.1624 26.6293 31.3991C25.618 31.6357 24.1008 30.5709 23.8198 30.3342C23.595 30.1568 19.6057 27.4947 18.2009 26.1932C17.8076 25.8383 17.358 25.1284 18.2571 24.3002L24.157 18.3845C24.8313 17.6746 25.5055 16.0182 22.696 18.0296L14.8295 23.6494C14.8295 23.6494 13.9305 24.241 12.2448 23.7086L8.59246 22.5255C8.59246 22.5255 7.2439 21.6381 9.54767 20.7507C15.1666 17.9704 22.078 15.1307 28.2026 12.4687Z" fill="#F7AAFF"/>
</g>
</g>
<defs>
<clipPath id="clip0_197_16">
<rect width="41" height="41" fill="white"/>
</clipPath>
</defs>
</svg>
