<svg width="41" height="41" viewBox="0 0 41 41" fill="none" xmlns="http://www.w3.org/2000/svg">
<g clip-path="url(#clip0_197_23)">
<mask id="mask0_197_23" style="mask-type:luminance" maskUnits="userSpaceOnUse" x="0" y="0" width="41" height="41">
<path d="M41 0H0V41H41V0Z" fill="white"/>
</mask>
<g mask="url(#mask0_197_23)">
<path d="M20.5 41C31.8218 41 41 31.8218 41 20.5C41 9.17816 31.8218 0 20.5 0C9.17816 0 0 9.17816 0 20.5C0 31.8218 9.17816 41 20.5 41Z" fill="#7E148B"/>
<path d="M31.8117 28.2796H29.1181C28.0995 28.2796 27.7926 27.4546 25.9666 25.6275C24.3709 24.0894 23.6968 23.8982 23.2933 23.8982C22.7348 23.8982 22.5826 24.0517 22.5826 24.82V27.2422C22.5826 27.8972 22.3702 28.2808 20.6587 28.2808C18.9982 28.1693 17.3882 27.6649 15.9609 26.8091C14.5336 25.9534 13.3301 24.7708 12.4494 23.3588C10.3591 20.7557 8.90417 17.7013 8.2002 14.4379C8.2002 14.0342 8.35364 13.6683 9.12321 13.6683H11.8144C12.5061 13.6683 12.7551 13.9764 13.0266 14.6881C14.3332 18.5336 16.5628 21.8787 17.4682 21.8787C17.8152 21.8787 17.9663 21.7252 17.9663 20.8601V16.8988C17.8519 15.0917 16.8922 14.9394 16.8922 14.2856C16.9044 14.113 16.9832 13.952 17.1122 13.8368C17.2411 13.7215 17.4099 13.6611 17.5828 13.6683H21.813C22.3914 13.6683 22.5826 13.9563 22.5826 14.6479V19.9949C22.5826 20.572 22.8305 20.7632 23.0052 20.7632C23.3522 20.7632 23.6189 20.572 24.2551 19.9371C25.6184 18.2736 26.7325 16.4206 27.5624 14.4366C27.647 14.1982 27.8075 13.994 28.0192 13.8554C28.2309 13.7168 28.4822 13.6515 28.7345 13.6694H31.4268C32.2343 13.6694 32.4054 14.0731 32.2343 14.6492C31.2548 16.8425 30.0431 18.9248 28.6201 20.8601C28.3297 21.3026 28.2141 21.5328 28.6201 22.0523C28.8867 22.4558 29.8311 23.2444 30.465 23.9939C31.388 24.9145 32.154 25.9792 32.7335 27.1454C32.9649 27.896 32.58 28.2796 31.8117 28.2796Z" fill="#F7AAFF"/>
</g>
</g>
<defs>
<clipPath id="clip0_197_23">
<rect width="41" height="41" fill="white"/>
</clipPath>
</defs>
</svg>
