<svg width="41" height="41" viewBox="0 0 41 41" fill="none" xmlns="http://www.w3.org/2000/svg">
<g clip-path="url(#clip0_197_37)">
<mask id="mask0_197_37" style="mask-type:luminance" maskUnits="userSpaceOnUse" x="0" y="0" width="41" height="41">
<path d="M41 0H0V41H41V0Z" fill="white"/>
</mask>
<g mask="url(#mask0_197_37)">
<path d="M20.5 41C31.8218 41 41 31.8218 41 20.5C41 9.17816 31.8218 0 20.5 0C9.17816 0 0 9.17816 0 20.5C0 31.8218 9.17816 41 20.5 41Z" fill="#7E148B"/>
<path d="M20.5001 5.4668C28.803 5.4668 35.5335 12.1972 35.5335 20.5001C35.5335 28.803 28.803 35.5335 20.5001 35.5335C17.8433 35.538 15.2334 34.835 12.9384 33.4964L5.47283 35.5335L7.50534 28.0649C6.1658 25.7692 5.46216 23.158 5.46682 20.5001C5.46682 12.1972 12.1972 5.4668 20.5001 5.4668ZM15.3768 13.4345L15.0761 13.4465C14.8818 13.4599 14.6918 13.5109 14.5169 13.5968C14.3538 13.6893 14.205 13.8047 14.0749 13.9396C13.8945 14.1095 13.7923 14.2568 13.6825 14.3996C13.1265 15.1226 12.8271 16.0101 12.8316 16.9222C12.8346 17.6588 13.0271 18.3759 13.3277 19.0464C13.9426 20.4024 14.9543 21.8381 16.2893 23.1685C16.611 23.4888 16.9267 23.8105 17.2665 24.1096C18.9253 25.5699 20.9019 26.6232 23.0393 27.1855L23.8932 27.3162C24.1713 27.3313 24.4494 27.3102 24.729 27.2967C25.1667 27.2736 25.5941 27.1551 25.9813 26.9494C26.1779 26.8477 26.3701 26.7373 26.5571 26.6187C26.5571 26.6187 26.6207 26.5756 26.745 26.4834C26.9479 26.3331 27.0727 26.2263 27.2411 26.0504C27.3674 25.9202 27.4726 25.7688 27.5568 25.5964C27.674 25.3514 27.7913 24.8839 27.8394 24.4945C27.8755 24.1968 27.865 24.0345 27.8604 23.9337C27.8544 23.7729 27.7206 23.606 27.5748 23.5354L26.6999 23.143C26.6999 23.143 25.392 22.5732 24.5922 22.2094C24.5084 22.1729 24.4188 22.152 24.3276 22.1478C24.2247 22.137 24.1208 22.1485 24.0227 22.1814C23.9247 22.2143 23.8349 22.2681 23.7594 22.3387C23.7518 22.3357 23.6511 22.4214 22.5642 23.7383C22.5019 23.8221 22.4159 23.8855 22.3174 23.9203C22.2188 23.9551 22.1122 23.9597 22.011 23.9337C21.913 23.9076 21.817 23.8744 21.7238 23.8345C21.5374 23.7564 21.4728 23.7263 21.345 23.6722C20.4819 23.2962 19.683 22.7874 18.9773 22.1643C18.7878 21.999 18.6119 21.8186 18.4315 21.6442C17.8402 21.0777 17.3247 20.437 16.8981 19.7379L16.8094 19.5951C16.7467 19.4986 16.6953 19.3952 16.6561 19.2869C16.599 19.066 16.7478 18.8886 16.7478 18.8886C16.7478 18.8886 17.1131 18.4887 17.283 18.2722C17.4484 18.0617 17.5882 17.8573 17.6784 17.7114C17.8558 17.4258 17.9114 17.1327 17.8182 16.9057C17.3972 15.8774 16.9622 14.8546 16.5133 13.8374C16.4246 13.6359 16.1615 13.4916 15.9225 13.463C15.8413 13.453 15.7601 13.445 15.6789 13.439C15.4771 13.4274 15.2747 13.4294 15.0731 13.445L15.3768 13.4345Z" fill="#F7AAFF"/>
</g>
</g>
<defs>
<clipPath id="clip0_197_37">
<rect width="41" height="41" fill="white"/>
</clipPath>
</defs>
</svg>
